<svg width="32" height="32" viewBox="0 0 32 32" fill="none" xmlns="http://www.w3.org/2000/svg">
<path fill-rule="evenodd" clip-rule="evenodd" d="M16.0289 0.119873C7.20981 0.119873 0.0584717 7.39181 0.0584717 16.3629C0.0584717 23.5396 4.63447 29.6283 10.98 31.7761C11.7781 31.9265 12.0712 31.4238 12.0712 30.9947C12.0712 30.6074 12.0564 29.3279 12.0495 27.9706C7.6065 28.9532 6.66898 26.0541 6.66898 26.0541C5.9425 24.1766 4.89576 23.6773 4.89576 23.6773C3.44677 22.6692 5.00498 22.6899 5.00498 22.6899C6.60869 22.8042 7.45312 24.3638 7.45312 24.3638C8.87751 26.847 11.1892 26.1291 12.1005 25.7141C12.2439 24.6645 12.6577 23.9474 13.1145 23.542C9.56723 23.1313 5.83831 21.7385 5.83831 15.5145C5.83831 13.7411 6.46217 12.2921 7.48379 11.1546C7.31798 10.7452 6.77133 9.09339 7.6385 6.856C7.6385 6.856 8.9796 6.41944 12.0315 8.521C13.3054 8.1611 14.6716 7.98061 16.0289 7.97442C17.3861 7.98061 18.7533 8.1611 20.0296 8.521C23.0778 6.41944 24.4171 6.856 24.4171 6.856C25.2864 9.09339 24.7395 10.7452 24.5736 11.1546C25.5976 12.2921 26.2173 13.7411 26.2173 15.5145C26.2173 21.7533 22.4812 23.127 18.925 23.5291C19.4978 24.0332 20.0082 25.0217 20.0082 26.5372C20.0082 28.7103 19.9897 30.4595 19.9897 30.9947C19.9897 31.427 20.2772 31.9335 21.0867 31.774C27.4288 29.6237 31.999 23.5372 31.999 16.3629C31.999 7.39181 24.8487 0.119873 16.0289 0.119873Z" fill="black"/>
<path fill-rule="evenodd" clip-rule="evenodd" d="M6.10726 23.4414C6.07209 23.5224 5.94726 23.5463 5.83355 23.4909C5.71771 23.4379 5.65265 23.3279 5.69021 23.247C5.72459 23.1639 5.84968 23.141 5.96525 23.1961C6.08135 23.2494 6.14746 23.3605 6.10726 23.4414Z" fill="black"/>
<path fill-rule="evenodd" clip-rule="evenodd" d="M6.75414 24.1752C6.67798 24.247 6.52908 24.2137 6.42806 24.1002C6.3236 23.9869 6.30403 23.8355 6.38125 23.7626C6.45979 23.6908 6.60419 23.7244 6.70892 23.8377C6.81338 23.9522 6.83374 24.1026 6.75414 24.1752Z" fill="black"/>
<path fill-rule="evenodd" clip-rule="evenodd" d="M7.38383 25.1107C7.28598 25.1799 7.12598 25.1151 7.02707 24.9706C6.92921 24.8262 6.92921 24.6529 7.02918 24.5835C7.12836 24.5141 7.28598 24.5765 7.38621 24.7199C7.48379 24.8665 7.48379 25.04 7.38383 25.1107Z" fill="black"/>
<path fill-rule="evenodd" clip-rule="evenodd" d="M8.2465 26.0145C8.15897 26.1127 7.97252 26.0863 7.83606 25.9524C7.69642 25.8214 7.65755 25.6355 7.74535 25.5374C7.83394 25.4389 8.02145 25.4666 8.15897 25.5995C8.29755 25.7302 8.33986 25.9174 8.2465 26.0145Z" fill="black"/>
<path fill-rule="evenodd" clip-rule="evenodd" d="M9.43659 26.5393C9.39798 26.6665 9.2184 26.7244 9.03751 26.6703C8.85688 26.6146 8.73867 26.4656 8.77517 26.337C8.81272 26.209 8.99308 26.1488 9.1753 26.2066C9.35566 26.262 9.47414 26.4099 9.43659 26.5393Z" fill="black"/>
<path fill-rule="evenodd" clip-rule="evenodd" d="M10.7436 26.6367C10.7481 26.7706 10.5947 26.8817 10.4048 26.8839C10.2138 26.8885 10.0594 26.7801 10.0573 26.6483C10.0573 26.513 10.2072 26.4029 10.3982 26.3997C10.5881 26.3959 10.7436 26.5035 10.7436 26.6367Z" fill="black"/>
<path fill-rule="evenodd" clip-rule="evenodd" d="M11.9598 26.4261C11.9826 26.5568 11.8506 26.691 11.662 26.7265C11.4767 26.7612 11.305 26.6805 11.2815 26.5509C11.2585 26.4169 11.3928 26.2827 11.5779 26.248C11.7668 26.2147 11.9358 26.2932 11.9598 26.4261Z" fill="black"/>
</svg>
